<svg width="107" height="20" viewBox="0 0 107 20" fill="none" xmlns="http://www.w3.org/2000/svg">
<g filter="url(#filter0_b_13606:4)">
<path d="M15.9072 3.95605H10.3594V19H5.90332V3.95605H0.457031V0.515625H15.9072V3.95605ZM23.1055 19.2539C20.998 19.2539 19.2926 18.6276 17.9893 17.375C16.6859 16.1139 16.0342 14.4762 16.0342 12.4619V12.1064C16.0342 10.7015 16.2923 9.46159 16.8086 8.38672C17.3333 7.31185 18.0951 6.48242 19.0938 5.89844C20.0924 5.30599 21.2773 5.00977 22.6484 5.00977C24.5781 5.00977 26.1016 5.61068 27.2188 6.8125C28.3359 8.00586 28.8945 9.67318 28.8945 11.8145V13.4775H20.3887C20.541 14.2477 20.8753 14.8529 21.3916 15.293C21.9079 15.7331 22.5765 15.9531 23.3975 15.9531C24.7516 15.9531 25.8096 15.4792 26.5713 14.5312L28.5264 16.8418C27.9932 17.5781 27.2357 18.1663 26.2539 18.6064C25.2806 19.0381 24.2311 19.2539 23.1055 19.2539ZM22.623 8.31055C21.3704 8.31055 20.6257 9.13997 20.3887 10.7988H24.7051V10.4688C24.722 9.7832 24.5485 9.25423 24.1846 8.88184C23.8206 8.50098 23.3001 8.31055 22.623 8.31055ZM36.4355 15.9531C37.0365 15.9531 37.502 15.7923 37.832 15.4707C38.1621 15.1406 38.3229 14.6836 38.3145 14.0996H42.3262C42.3262 15.6061 41.7845 16.8418 40.7012 17.8066C39.6263 18.7715 38.2383 19.2539 36.5371 19.2539C34.5397 19.2539 32.9655 18.6276 31.8145 17.375C30.6634 16.1224 30.0879 14.3874 30.0879 12.1699V11.9922C30.0879 10.6042 30.3418 9.38118 30.8496 8.32324C31.3659 7.25684 32.1064 6.4401 33.0713 5.87305C34.0361 5.29753 35.1787 5.00977 36.499 5.00977C38.2848 5.00977 39.7025 5.50488 40.752 6.49512C41.8014 7.48535 42.3262 8.82682 42.3262 10.5195H38.3145C38.3145 9.80859 38.141 9.2627 37.7939 8.88184C37.4469 8.50098 36.9814 8.31055 36.3975 8.31055C35.2887 8.31055 34.6413 9.01725 34.4551 10.4307C34.3958 10.8792 34.3662 11.4971 34.3662 12.2842C34.3662 13.6637 34.5312 14.6201 34.8613 15.1533C35.1914 15.6865 35.7161 15.9531 36.4355 15.9531ZM59.7695 19H55.3389L48.7881 7.49805V19H44.332V0.515625H48.7881L55.3262 12.0176V0.515625H59.7695V19ZM69.0371 19.2539C66.9297 19.2539 65.2243 18.6276 63.9209 17.375C62.6175 16.1139 61.9658 14.4762 61.9658 12.4619V12.1064C61.9658 10.7015 62.224 9.46159 62.7402 8.38672C63.265 7.31185 64.0267 6.48242 65.0254 5.89844C66.0241 5.30599 67.209 5.00977 68.5801 5.00977C70.5098 5.00977 72.0332 5.61068 73.1504 6.8125C74.2676 8.00586 74.8262 9.67318 74.8262 11.8145V13.4775H66.3203C66.4727 14.2477 66.807 14.8529 67.3232 15.293C67.8395 15.7331 68.5081 15.9531 69.3291 15.9531C70.6833 15.9531 71.7412 15.4792 72.5029 14.5312L74.458 16.8418C73.9248 17.5781 73.1673 18.1663 72.1855 18.6064C71.2122 19.0381 70.1628 19.2539 69.0371 19.2539ZM68.5547 8.31055C67.3021 8.31055 66.5573 9.13997 66.3203 10.7988H70.6367V10.4688C70.6536 9.7832 70.4801 9.25423 70.1162 8.88184C69.7523 8.50098 69.2318 8.31055 68.5547 8.31055ZM88.4229 13.3633L89.8066 5.26367H93.9072L90.6699 19H87.0518L84.7793 10.8496L82.4941 19H78.876L75.6387 5.26367H79.7393L81.0977 13.5537L83.2812 5.26367H86.2646L88.4229 13.3633ZM102.642 15.1406C102.642 14.7767 102.451 14.4847 102.07 14.2646C101.689 14.0446 100.966 13.8161 99.8994 13.5791C98.833 13.3421 97.9528 13.0332 97.2588 12.6523C96.5648 12.263 96.0358 11.7933 95.6719 11.2432C95.3079 10.693 95.126 10.0625 95.126 9.35156C95.126 8.09049 95.6465 7.05371 96.6875 6.24121C97.7285 5.42025 99.0911 5.00977 100.775 5.00977C102.587 5.00977 104.042 5.42025 105.143 6.24121C106.243 7.06217 106.793 8.14128 106.793 9.47852H102.502C102.502 8.37826 101.922 7.82812 100.763 7.82812C100.314 7.82812 99.9375 7.95508 99.6328 8.20898C99.3281 8.45443 99.1758 8.76335 99.1758 9.13574C99.1758 9.5166 99.362 9.82552 99.7344 10.0625C100.107 10.2995 100.699 10.4941 101.512 10.6465C102.333 10.7988 103.052 10.9808 103.67 11.1924C105.735 11.9033 106.768 13.1771 106.768 15.0137C106.768 16.2663 106.209 17.2861 105.092 18.0732C103.983 18.8604 102.544 19.2539 100.775 19.2539C99.599 19.2539 98.5495 19.0423 97.627 18.6191C96.7044 18.196 95.985 17.6204 95.4688 16.8926C94.9525 16.1647 94.6943 15.3988 94.6943 14.5947H98.6934C98.7103 15.2295 98.9219 15.695 99.3281 15.9912C99.7344 16.279 100.255 16.4229 100.89 16.4229C101.474 16.4229 101.91 16.3044 102.197 16.0674C102.493 15.8304 102.642 15.5215 102.642 15.1406Z" fill="white" fill-opacity="0.85"/>
</g>
<defs>
<filter id="filter0_b_13606:4" x="-3.54297" y="-3.48438" width="114.336" height="26.7383" filterUnits="userSpaceOnUse" color-interpolation-filters="sRGB">
<feFlood flood-opacity="0" result="BackgroundImageFix"/>
<feGaussianBlur in="BackgroundImage" stdDeviation="2"/>
<feComposite in2="SourceAlpha" operator="in" result="effect1_backgroundBlur_13606:4"/>
<feBlend mode="normal" in="SourceGraphic" in2="effect1_backgroundBlur_13606:4" result="shape"/>
</filter>
</defs>
</svg>
